<svg width="34" height="34" viewBox="0 0 34 34" fill="none" xmlns="http://www.w3.org/2000/svg">
<circle cx="17" cy="17" r="16" stroke="white" stroke-width="2"/>
<path d="M16.1886 11.2929C15.798 10.9024 15.1649 10.9024 14.7743 11.2929C14.3838 11.6834 14.3838 12.3166 14.7743 12.7071L16.1886 11.2929ZM20.9628 17.4814L21.6699 18.1885C22.0604 17.7979 22.0604 17.1648 21.6699 16.7743L20.9628 17.4814ZM14.7743 22.2556C14.3838 22.6462 14.3838 23.2793 14.7743 23.6698C15.1649 24.0604 15.798 24.0604 16.1886 23.6698L14.7743 22.2556ZM14.7743 12.7071L20.2557 18.1885L21.6699 16.7743L16.1886 11.2929L14.7743 12.7071ZM20.2557 16.7743L14.7743 22.2556L16.1886 23.6698L21.6699 18.1885L20.2557 16.7743Z" fill="white"/>
</svg>
