<svg width="34" height="34" viewBox="0 0 34 34" fill="none" xmlns="http://www.w3.org/2000/svg">
<circle r="16" transform="matrix(-1 0 0 1 17 17)" stroke="white" stroke-width="2"/>
<path d="M17.8114 11.2929C18.202 10.9024 18.8351 10.9024 19.2257 11.2929C19.6162 11.6834 19.6162 12.3166 19.2257 12.7071L17.8114 11.2929ZM13.0372 17.4814L12.3301 18.1885C11.9396 17.7979 11.9396 17.1648 12.3301 16.7743L13.0372 17.4814ZM19.2257 22.2556C19.6162 22.6462 19.6162 23.2793 19.2257 23.6698C18.8351 24.0604 18.202 24.0604 17.8114 23.6698L19.2257 22.2556ZM19.2257 12.7071L13.7443 18.1885L12.3301 16.7743L17.8114 11.2929L19.2257 12.7071ZM13.7443 16.7743L19.2257 22.2556L17.8114 23.6698L12.3301 18.1885L13.7443 16.7743Z" fill="white"/>
</svg>
