<?xml version="1.0" encoding="utf-8"?>
<!-- Generator: Adobe Illustrator 24.0.3, SVG Export Plug-In . SVG Version: 6.00 Build 0)  -->
<svg version="1.1" id="Layer_1" xmlns="http://www.w3.org/2000/svg" xmlns:xlink="http://www.w3.org/1999/xlink" x="0px" y="0px"
	 viewBox="0 0 1440 1965" style="enable-background:new 0 0 1440 1965;" xml:space="preserve">
<style type="text/css">
	.st0{fill:url(#SVGID_1_);}
	.st1{fill:url(#SVGID_2_);}
</style>
<linearGradient id="SVGID_1_" gradientUnits="userSpaceOnUse" x1="429.011" y1="169.5287" x2="1054.1614" y2="1717.1536" gradientTransform="matrix(0.9945 -0.105 -0.105 -0.9945 108.7702 2039.3784)">
	<stop  offset="6.250000e-02" style="stop-color:#CFB236;stop-opacity:0.53"/>
	<stop  offset="1" style="stop-color:#E7FFFF;stop-opacity:0.97"/>
</linearGradient>
<path class="st0" d="M1616.3,900.8c0.1-3.2,0.7-7,2-11.5c4.4-14.5,7.5-25.5,9.7-33.6c8.2-19.2,21.9-52.8,43.6-108.2
	c43.5-110.7,64.7-204-55.1-221.6C1026.2,439,1107.8,969.7,514.1,837.8c-821.1-182.5-1081.6,850.4-352.6,529.7
	c736.3-456.1,872.5,3.8,1313.5-354.4C1531.7,967,1578.3,930.1,1616.3,900.8C1952.2,641.7,1614.1,979.7,1616.3,900.8z"/>
<linearGradient id="SVGID_2_" gradientUnits="userSpaceOnUse" x1="463.9088" y1="165.8444" x2="1187.2861" y2="1956.6403" gradientTransform="matrix(1 0 0 -1 0 1963.2756)">
	<stop  offset="6.250000e-02" style="stop-color:#CFB236;stop-opacity:0.53"/>
	<stop  offset="0.9451" style="stop-color:#E7FFFF;stop-opacity:0.97"/>
</linearGradient>
<path class="st1" d="M1653.7,992.9c0.4-3.1,1.4-6.9,3.1-11.2c5.9-14,10.2-24.6,13.2-32.4c10.2-18.2,27.3-50.2,54.7-103
	c54.8-105.5,85.7-196.1-31.5-226.2c-578-148.4-552.5,388-1129.1,194.4c-797.4-267.7-1164.9,732.1-406.3,489.8
	c780.2-376.2,867.3,95.4,1343.5-214.5C1562.5,1049.9,1612.8,1018.1,1653.7,992.9C2014.8,770.5,1643.2,1071.2,1653.7,992.9z"/>
</svg>
