<svg width="18" height="20" viewBox="0 0 18 20" fill="none" xmlns="http://www.w3.org/2000/svg">
<path d="M6.81429 5.75471C7.84286 4.44969 6.68571 2.88366 6.04286 1.70914C5.52857 1.05663 4.88571 0.143112 4.11429 0.0126098C3.34286 -0.117893 2.57143 0.795624 2.05714 1.31763C0.771429 2.49215 0.128571 4.05818 0 5.75471C0 6.01572 0 6.27672 0 6.01572C0.128571 7.05974 0.257143 8.10375 0.642857 9.01727C1.02857 9.93079 1.41429 10.8443 1.92857 11.6273C3.08571 13.3238 4.37143 15.0204 5.91429 16.4559C7.45714 17.7609 9.12857 19.066 11.1857 19.4575C13.1143 19.849 14.9143 19.4575 16.4571 18.1524C16.9714 17.7609 18 17.1084 18 16.3254C18 15.5424 17.4857 14.8899 16.8429 14.4984C15.6857 13.4544 14.0143 11.7578 12.4714 13.0628C11.8286 13.5849 11.1857 14.4984 10.4143 14.6289C9.64286 14.7594 8.87143 14.2374 8.22857 13.7154C6.94286 12.6713 5.65714 11.2358 4.88571 9.66978C4.75714 8.88677 4.5 7.97325 5.01429 7.32074C5.4 6.66823 6.3 6.40722 6.81429 5.75471Z" fill="white"/>
</svg>
