<?xml version="1.0" encoding="utf-8"?>
<!-- Generator: Adobe Illustrator 24.0.3, SVG Export Plug-In . SVG Version: 6.00 Build 0)  -->
<svg version="1.1" id="Layer_1" xmlns="http://www.w3.org/2000/svg" xmlns:xlink="http://www.w3.org/1999/xlink" x="0px" y="0px"
	 viewBox="0 0 1440 1965" style="enable-background:new 0 0 1440 1965;" xml:space="preserve">
<style type="text/css">
	.st0{fill:url(#SVGID_1_);}
	.st1{fill:url(#SVGID_2_);}
</style>
<linearGradient id="SVGID_1_" gradientUnits="userSpaceOnUse" x1="463.9069" y1="429.4304" x2="1121.0167" y2="-1197.3135" gradientTransform="matrix(1 0 0 1 0 1368)">
	<stop  offset="6.250000e-02" style="stop-color:#96D656;stop-opacity:0.53"/>
	<stop  offset="0.9451" style="stop-color:#A2C798;stop-opacity:0.97"/>
</linearGradient>
<path class="st0" d="M1653.7,992.9c0.4-3.1,1.4-6.9,3.1-11.2c5.9-14,10.2-24.6,13.2-32.4c10.2-18.2,27.3-50.2,54.7-103
	c54.8-105.5,85.7-196.1-31.5-226.2c-578-148.4-552.5,388-1129.1,194.4c-797.4-267.7-1164.9,732.1-406.3,489.8
	c780.2-376.2,867.3,95.4,1343.5-214.5C1562.5,1049.9,1612.8,1018.1,1653.7,992.9C2014.8,770.5,1643.2,1071.2,1653.7,992.9z"/>
<linearGradient id="SVGID_2_" gradientUnits="userSpaceOnUse" x1="429.779" y1="426.3008" x2="1086.8888" y2="-1200.4431" gradientTransform="matrix(0.9942 -0.1073 0.1073 0.9942 47.6021 1448.532)">
	<stop  offset="6.250000e-02" style="stop-color:#96D656;stop-opacity:0.53"/>
	<stop  offset="0.9451" style="stop-color:#A2C798;stop-opacity:0.97"/>
</linearGradient>
<path class="st1" d="M1617.2,898.6c0.1-3.1,0.7-7,1.9-11.5c4.4-14.6,7.5-25.6,9.6-33.6c8.2-19.2,21.8-52.8,43.3-108.3
	c43.2-110.8,64.2-204.2-55.6-221.5c-590.6-85.5-507.7,445.1-1101.7,314.5c-821.5-180.6-1079.6,852.9-351.4,530.6
	c735.3-457.8,872.5,1.7,1312.7-357.5C1532.7,965.1,1579.3,928.1,1617.2,898.6C1952.4,638.8,1615.2,977.6,1617.2,898.6z"/>
</svg>
