<svg width="1920" height="2338" viewBox="0 0 1920 2338" fill="none" xmlns="http://www.w3.org/2000/svg">
<path d="M2136.91 1009.97C2108.13 1026.33 2087.45 1029.39 2101.82 992.499C2101.81 992.502 2101.81 992.504 2101.8 992.506C2135.82 907.853 2135.25 840.132 2033.01 813.888C1392.8 649.545 1421.05 1243.66 782.328 1029.21C-100.954 732.664 -583.891 1721.44 256.422 1453C1120.56 1036.26 1498.64 1558.56 1975.06 1147.51C1954.21 1212.21 1977.23 1237.2 2064.62 1070.77C2092.82 1046.81 2116.75 1026.71 2136.91 1009.97C2202.98 972.402 2311.76 864.753 2136.91 1009.97Z" fill="url(#paint0_linear)"/>
<path d="M2142.98 914.29C2115.75 933.115 2095.42 937.989 2106.49 899.974C2106.48 899.977 2106.48 899.98 2106.47 899.983C2132.92 812.667 2126.4 745.258 2022.25 728.102C1370.07 620.666 1450.43 1209.99 795.332 1052.52C-110.597 834.755 -504.756 1862.16 308.709 1520.89C1132.88 1029.82 1555.39 1516.86 1993.84 1065.52C1978.76 1131.81 2003.89 1154.68 2076.31 981.213C2102.3 954.868 2124.37 932.739 2142.98 914.29C2205.5 871.063 2304.39 754.27 2142.98 914.29Z" fill="url(#paint1_linear)"/>
<defs>
<linearGradient id="paint0_linear" x1="1456.59" y1="2435.11" x2="1992.62" y2="1108.09" gradientUnits="userSpaceOnUse">
<stop offset="0.0625" stop-color="#BCB687" stop-opacity="0.53"/>
<stop offset="1" stop-color="#DEDCCD" stop-opacity="0.97"/>
</linearGradient>
<linearGradient id="paint1_linear" x1="1590.55" y1="2393.72" x2="2007.88" y2="1024.72" gradientUnits="userSpaceOnUse">
<stop offset="0.0625" stop-color="#BCB687" stop-opacity="0.53"/>
<stop offset="1" stop-color="#DEDCCD" stop-opacity="0.97"/>
</linearGradient>
</defs>
</svg>
