<svg width="1440" height="1965" viewBox="0 0 1440 1965" fill="none" xmlns="http://www.w3.org/2000/svg">
<path d="M1616.96 903.778C1617.06 900.627 1617.71 896.814 1618.98 892.275C1623.4 877.751 1626.61 866.794 1628.87 858.724C1637.17 839.581 1651.01 806.034 1673.01 750.775C1717.01 640.275 1738.66 547.101 1618.98 528.9C1029.03 439.185 1108.14 970.299 515.004 835.447C-305.243 648.96 -570.696 1680.61 159.847 1363.46C898.383 910.963 1032.36 1371.49 1475.05 1015.46C1532 969.652 1578.81 932.913 1616.96 903.778C1614.34 982.676 1954.03 646.323 1616.96 903.778Z" fill="url(#paint0_linear)"/>
<path d="M1653.67 992.924C1654.09 989.8 1655.12 986.071 1656.82 981.681C1662.68 967.673 1666.98 957.093 1670.03 949.29C1680.2 931.074 1697.33 899.083 1724.76 846.307C1779.61 740.771 1810.49 650.235 1693.23 620.135C1115.24 471.765 1140.75 1008.13 564.101 814.533C-233.334 546.805 -600.811 1546.67 157.83 1304.31C937.986 928.08 1025.15 1399.71 1501.28 1089.82C1562.54 1049.95 1612.79 1018.09 1653.67 992.924C1643.15 1071.16 2014.84 770.536 1653.67 992.924Z" fill="url(#paint1_linear)"/>
<defs>
<linearGradient id="paint0_linear" x1="1247.83" y1="2037.33" x2="1609.3" y2="796.829" gradientUnits="userSpaceOnUse">
<stop offset="0.0625" stop-color="#BCB687" stop-opacity="0.53"/>
<stop offset="1" stop-color="#DEDCCD" stop-opacity="0.97"/>
</linearGradient>
<linearGradient id="paint1_linear" x1="1172.82" y1="2083.79" x2="1656.76" y2="885.746" gradientUnits="userSpaceOnUse">
<stop offset="0.0625" stop-color="#BCB687" stop-opacity="0.53"/>
<stop offset="1" stop-color="#DEDCCD" stop-opacity="0.97"/>
</linearGradient>
</defs>
</svg>
